<?xml version="1.0" encoding="UTF-8" standalone="no"?>
<svg
   width="114"
   height="40"
   viewBox="0 0 114 40"
   version="1.1"
   id="svg239"
   sodipodi:docname="환경설정.svg"
   inkscape:version="1.1.1 (3bf5ae0d25, 2021-09-20)"
   xmlns:inkscape="http://www.inkscape.org/namespaces/inkscape"
   xmlns:sodipodi="http://sodipodi.sourceforge.net/DTD/sodipodi-0.dtd"
   xmlns="http://www.w3.org/2000/svg"
   xmlns:svg="http://www.w3.org/2000/svg">
  <sodipodi:namedview
     id="namedview241"
     pagecolor="#ffffff"
     bordercolor="#111111"
     borderopacity="1"
     inkscape:pageshadow="0"
     inkscape:pageopacity="0"
     inkscape:pagecheckerboard="1"
     showgrid="false"
     inkscape:zoom="5.245614"
     inkscape:cx="62.623746"
     inkscape:cy="15.727425"
     inkscape:window-width="1918"
     inkscape:window-height="840"
     inkscape:window-x="0"
     inkscape:window-y="0"
     inkscape:window-maximized="1"
     inkscape:current-layer="g235" />
  <defs
     id="defs225">
    <linearGradient
       id="a"
       x1="0%"
       y1="50%"
       y2="50%">
      <stop
         offset="0%"
         stop-color="#5F676F"
         id="stop220" />
      <stop
         offset="100%"
         stop-color="#343A40"
         id="stop222" />
    </linearGradient>
  </defs>
  <g
     fill="none"
     fill-rule="evenodd"
     id="g237">
    <rect
       width="114"
       height="40"
       fill="url(#a)"
       rx="6"
       id="rect227" />
    <g
       fill="#FFF"
       id="g235">
      <text
         font-family="AppleSDGothicNeo-Bold, 'Apple SD Gothic Neo'"
         font-size="14px"
         font-weight="bold"
         letter-spacing="-0.25"
         transform="translate(19,11)"
         id="text231"><tspan
           x="27.280001"
           y="14"
           id="tspan229">로그조회</tspan></text>
      <path
         fill="#ffffff"
         fill-rule="nonzero"
         stroke="#ffffff"
         stroke-width="0.5"
         d="m 34.799,26.123 -3.874,-4.029 a 6.55,6.55 0 0 0 1.542,-4.225 6.579,6.579 0 0 0 -6.571,-6.571 6.579,6.579 0 0 0 -6.572,6.571 6.579,6.579 0 0 0 6.572,6.572 c 1.36,0 2.656,-0.41 3.764,-1.19 l 3.904,4.06 a 0.85,0.85 0 0 0 0.617,0.263 0.858,0.858 0 0 0 0.618,-1.451 z m -8.903,-13.11 a 4.863,4.863 0 0 1 4.857,4.856 4.863,4.863 0 0 1 -4.857,4.858 4.863,4.863 0 0 1 -4.858,-4.858 4.863,4.863 0 0 1 4.858,-4.857 z"
         id="path79" />
    </g>
  </g>
</svg>
