<?xml version="1.0" encoding="UTF-8" standalone="no"?>
<svg
   width="114"
   height="40"
   viewBox="0 0 114 40"
   version="1.1"
   id="svg18564"
   sodipodi:docname="복호화.svg"
   inkscape:version="1.1.1 (3bf5ae0d25, 2021-09-20)"
   xmlns:inkscape="http://www.inkscape.org/namespaces/inkscape"
   xmlns:sodipodi="http://sodipodi.sourceforge.net/DTD/sodipodi-0.dtd"
   xmlns="http://www.w3.org/2000/svg"
   xmlns:svg="http://www.w3.org/2000/svg">
  <sodipodi:namedview
     id="namedview18566"
     pagecolor="#ffffff"
     bordercolor="#111111"
     borderopacity="1"
     inkscape:pageshadow="0"
     inkscape:pageopacity="0"
     inkscape:pagecheckerboard="1"
     showgrid="false"
     inkscape:zoom="7.4780702"
     inkscape:cx="24.538416"
     inkscape:cy="21.329032"
     inkscape:window-width="1918"
     inkscape:window-height="840"
     inkscape:window-x="0"
     inkscape:window-y="0"
     inkscape:window-maximized="1"
     inkscape:current-layer="g18562" />
  <defs
     id="defs18552">
    <linearGradient
       id="a"
       x1="0%"
       y1="43.844%"
       y2="56.156%">
      <stop
         offset="0%"
         stop-color="#00BAE8"
         id="stop18547" />
      <stop
         offset="100%"
         stop-color="#0063F2"
         id="stop18549" />
    </linearGradient>
  </defs>
  <g
     fill="none"
     fill-rule="evenodd"
     id="g18562">
    <rect
       width="114"
       height="40"
       fill="url(#a)"
       rx="6"
       id="rect18554" />
    <text
       fill="#ffffff"
       font-family="AppleSDGothicNeo-Bold, 'Apple SD Gothic Neo'"
       font-size="14px"
       font-weight="bold"
       letter-spacing="-0.25"
       id="text18558"><tspan
         x="49.709999"
         y="25"
         id="tspan18556">복호화</tspan></text>
    <path
       fill="#FFF"
       fill-rule="nonzero"
       d="M40.125 17.73H39v-1.496C39 13.348 36.645 11 33.75 11s-5.25 2.348-5.25 5.234v1.495h-1.125a.374.374 0 0 0-.375.374v9.347a1.5 1.5 0 0 0 1.5 1.495H39a1.5 1.5 0 0 0 1.5-1.495v-9.347a.374.374 0 0 0-.375-.374zm-5.252 7.81a.374.374 0 0 1-.373.414H33a.376.376 0 0 1-.373-.415l.237-2.12a1.478 1.478 0 0 1-.614-1.203 1.5 1.5 0 0 1 3 0c0 .483-.23.924-.614 1.202l.237 2.121zm1.877-7.81h-6v-1.496c0-1.65 1.346-2.99 3-2.99s3 1.34 3 2.99v1.495z"
       id="path18560" />
    <rect
       style="fill:#009feb;fill-opacity:1;stroke-width:0.446074"
       id="rect11369"
       width="3.7031078"
       height="2.5375361"
       x="36.108677"
       y="15.192184"
       rx="0.34042117"
       ry="0.58451748" />
  </g>
</svg>
